<svg xmlns="http://www.w3.org/2000/svg" viewBox="0 0 180 180">
  <rect width="180" height="180" rx="44" fill="#090914" />
  <g transform="translate(14 14)">
    <path d="M76 16C109.137 16 136 42.863 136 76C136 109.137 109.137 136 76 136C42.863 136 16 109.137 16 76C16 42.863 42.863 16 76 16Z" fill="#120f2a" stroke="#7C3AED" stroke-width="8"/>
    <path d="M76 76L76 20C96.14 20 114.397 30.012 125.269 46.111Z" fill="#7C3AED"/>
    <path d="M76 76L125.269 46.111C133.359 59.465 136.242 75.552 133.359 90.953Z" fill="#06B6D4"/>
    <path d="M76 76L133.359 90.953C128.118 111.141 112.245 127.014 92.057 132.255Z" fill="#EC4899"/>
    <path d="M76 76L92.057 132.255C76.656 135.138 60.569 132.255 47.215 124.165Z" fill="#F59E0B"/>
    <path d="M76 76L47.215 124.165C29.304 113.293 20 95.036 20 76Z" fill="#10B981"/>
    <circle cx="76" cy="76" r="16" fill="#fff"/>
    <circle cx="76" cy="76" r="8" fill="#7C3AED"/>
    <path d="M76 0L64 24H88Z" fill="#fff"/>
  </g>
</svg>
