<svg xmlns="http://www.w3.org/2000/svg" viewBox="0 0 64 64">
  <defs>
    <linearGradient id="ring" x1="8" y1="8" x2="56" y2="56" gradientUnits="userSpaceOnUse">
      <stop offset="0" stop-color="#7C3AED" />
      <stop offset="0.5" stop-color="#06B6D4" />
      <stop offset="1" stop-color="#EC4899" />
    </linearGradient>
    <linearGradient id="sliceA" x1="10" y1="16" x2="54" y2="48" gradientUnits="userSpaceOnUse">
      <stop offset="0" stop-color="#7C3AED" />
      <stop offset="1" stop-color="#5B21B6" />
    </linearGradient>
    <linearGradient id="sliceB" x1="20" y1="10" x2="48" y2="54" gradientUnits="userSpaceOnUse">
      <stop offset="0" stop-color="#06B6D4" />
      <stop offset="1" stop-color="#0891B2" />
    </linearGradient>
    <linearGradient id="sliceC" x1="16" y1="14" x2="50" y2="50" gradientUnits="userSpaceOnUse">
      <stop offset="0" stop-color="#EC4899" />
      <stop offset="1" stop-color="#BE185D" />
    </linearGradient>
  </defs>
  <rect width="64" height="64" rx="18" fill="#090914" />
  <circle cx="32" cy="32" r="24" fill="#120f2a" stroke="url(#ring)" stroke-width="3" />
  <path d="M32 32 L32 10 A22 22 0 0 1 51.1 21 Z" fill="url(#sliceA)" />
  <path d="M32 32 L51.1 21 A22 22 0 0 1 48 47 Z" fill="url(#sliceB)" />
  <path d="M32 32 L48 47 A22 22 0 0 1 16 47 Z" fill="url(#sliceC)" />
  <path d="M32 32 L16 47 A22 22 0 0 1 12.9 21 Z" fill="#F59E0B" />
  <path d="M32 32 L12.9 21 A22 22 0 0 1 32 10 Z" fill="#10B981" />
  <circle cx="32" cy="32" r="6" fill="#ffffff" opacity="0.95" />
  <circle cx="32" cy="32" r="3" fill="#7C3AED" />
  <path d="M32 4 L27 14 H37 Z" fill="#ffffff" />
</svg>
