<svg xmlns="http://www.w3.org/2000/svg" viewBox="0 0 512 512">
  <rect width="512" height="512" rx="120" fill="#090914" />
  <g transform="translate(42 42)">
    <path d="M214 34C311.754 34 391 113.246 391 211C391 308.754 311.754 388 214 388C116.246 388 37 308.754 37 211C37 113.246 116.246 34 214 34Z" fill="#120f2a" stroke="#7C3AED" stroke-width="24"/>
    <path d="M214 211L214 48C273.436 48 327.371 77.515 359.452 125.007Z" fill="#7C3AED"/>
    <path d="M214 211L359.452 125.007C383.337 161.495 392.127 205.645 383.924 247.889Z" fill="#06B6D4"/>
    <path d="M214 211L383.924 247.889C371.013 309.178 321.178 359.013 259.889 371.924Z" fill="#EC4899"/>
    <path d="M214 211L259.889 371.924C217.645 380.127 173.495 371.337 137.007 347.452Z" fill="#F59E0B"/>
    <path d="M214 211L137.007 347.452C87.77 315.371 48 266.436 48 211Z" fill="#10B981"/>
    <circle cx="214" cy="211" r="46" fill="#fff"/>
    <circle cx="214" cy="211" r="22" fill="#7C3AED"/>
    <path d="M214 0L180 68H248Z" fill="#fff"/>
  </g>
</svg>
