<svg xmlns="http://www.w3.org/2000/svg" viewBox="0 0 192 192">
  <rect width="192" height="192" rx="44" fill="#090914" />
  <g transform="translate(16 16)">
    <path d="M80 14C116.451 14 146 43.549 146 80C146 116.451 116.451 146 80 146C43.549 146 14 116.451 14 80C14 43.549 43.549 14 80 14Z" fill="#120f2a" stroke="#7C3AED" stroke-width="8"/>
    <path d="M80 80L80 18C102.164 18 122.277 29.013 134.235 46.722Z" fill="#7C3AED"/>
    <path d="M80 80L134.235 46.722C143.136 60.334 146.41 76.807 143.355 92.567Z" fill="#06B6D4"/>
    <path d="M80 80L143.355 92.567C138.543 115.431 120.208 133.766 97.344 138.578Z" fill="#EC4899"/>
    <path d="M80 80L97.344 138.578C81.584 141.633 65.111 138.359 51.499 129.458Z" fill="#F59E0B"/>
    <path d="M80 80L51.499 129.458C31.905 117.5 18 99.388 18 80Z" fill="#10B981"/>
    <circle cx="80" cy="80" r="17" fill="#fff"/>
    <circle cx="80" cy="80" r="8" fill="#7C3AED"/>
    <path d="M80 0L67 26H93Z" fill="#fff"/>
  </g>
</svg>
